<svg width="72" height="72" viewBox="0 0 72 72" fill="none" xmlns="http://www.w3.org/2000/svg">
<g clip-path="url(#clip0_2699_1026)">
<g clip-path="url(#clip1_2699_1026)">
<g clip-path="url(#clip2_2699_1026)">
<path d="M42.7501 43.875V32.625H29.2501V43.875L13.0501 65.475C11.3817 67.7003 12.9691 70.875 15.7501 70.875H56.2501C59.0311 70.875 60.6185 67.7003 58.9501 65.475L42.7501 43.875Z" fill="#6FA4D8"/>
</g>
<g clip-path="url(#clip3_2699_1026)">
<path d="M58.95 65.475L42.75 43.875V32.625H36H29.25V35.4375H34.3125C35.244 35.4375 36 36.1935 36 37.125V43.875L45 70.875H56.25C59.031 70.875 60.6184 67.7003 58.95 65.475Z" fill="#5C76B2"/>
</g>
<g clip-path="url(#clip4_2699_1026)">
<path d="M42.75 32.625H29.25C28.0069 32.625 27 31.6181 27 30.375C27 29.1319 28.0069 28.125 29.25 28.125H42.75C43.9931 28.125 45 29.1319 45 30.375C45 31.6181 43.9931 32.625 42.75 32.625Z" fill="#6FA4D8"/>
</g>
<g clip-path="url(#clip5_2699_1026)">
<path d="M42.75 28.125H36C37.2431 28.125 38.25 29.1319 38.25 30.375C38.25 31.6181 37.2431 32.625 36 32.625H42.75C43.9931 32.625 45 31.6181 45 30.375C45 29.1319 43.9931 28.125 42.75 28.125Z" fill="#5C76B2"/>
</g>
<g clip-path="url(#clip6_2699_1026)">
<path d="M54 66.3754H18L26.4375 55.1254L26.4386 55.1243C28.8281 51.9361 33.6105 51.9349 36.0011 55.1221L36.0022 55.1232C38.3929 58.3092 43.1707 58.3103 45.5625 55.1254L54 66.3754Z" fill="#F68820"/>
</g>
<g clip-path="url(#clip7_2699_1026)">
<path d="M45.5625 55.1254L45.5614 55.1243C43.1719 51.9361 38.3895 51.9349 35.9989 55.1221L35.9977 55.1232C33.6071 58.3092 28.8293 58.3103 26.4375 55.1254L18 66.3754H54L45.5625 55.1254Z" fill="#FBBE18"/>
</g>
<g clip-path="url(#clip8_2699_1026)">
<path d="M45.5626 55.126L45.5615 55.1248C43.9753 53.0076 41.336 52.3045 39.041 52.9986L43.5005 66.376H54.0001L45.5626 55.126Z" fill="#F68820"/>
</g>
<g clip-path="url(#clip9_2699_1026)">
<path d="M32.0625 62.4375C32.9945 62.4375 33.75 61.682 33.75 60.75C33.75 59.818 32.9945 59.0625 32.0625 59.0625C31.1305 59.0625 30.375 59.818 30.375 60.75C30.375 61.682 31.1305 62.4375 32.0625 62.4375Z" fill="#F68820"/>
</g>
<g clip-path="url(#clip10_2699_1026)">
<path d="M28.125 64.6875C28.7463 64.6875 29.25 64.1838 29.25 63.5625C29.25 62.9412 28.7463 62.4375 28.125 62.4375C27.5037 62.4375 27 62.9412 27 63.5625C27 64.1838 27.5037 64.6875 28.125 64.6875Z" fill="#F68820"/>
</g>
<g clip-path="url(#clip11_2699_1026)">
<path d="M30.375 21.375C33.4816 21.375 36 18.8566 36 15.75C36 12.6434 33.4816 10.125 30.375 10.125C27.2684 10.125 24.75 12.6434 24.75 15.75C24.75 18.8566 27.2684 21.375 30.375 21.375Z" fill="#F68820"/>
</g>
<g clip-path="url(#clip12_2699_1026)">
<path d="M28.6875 15.75C29.6195 15.75 30.375 14.9945 30.375 14.0625C30.375 13.1305 29.6195 12.375 28.6875 12.375C27.7555 12.375 27 13.1305 27 14.0625C27 14.9945 27.7555 15.75 28.6875 15.75Z" fill="#FBBE18"/>
</g>
<g clip-path="url(#clip13_2699_1026)">
<path d="M41.625 25.875C43.489 25.875 45 24.364 45 22.5C45 20.636 43.489 19.125 41.625 19.125C39.761 19.125 38.25 20.636 38.25 22.5C38.25 24.364 39.761 25.875 41.625 25.875Z" fill="#F68820"/>
</g>
<g clip-path="url(#clip14_2699_1026)">
<path d="M40.5 22.5C41.1213 22.5 41.625 21.9963 41.625 21.375C41.625 20.7537 41.1213 20.25 40.5 20.25C39.8787 20.25 39.375 20.7537 39.375 21.375C39.375 21.9963 39.8787 22.5 40.5 22.5Z" fill="#FBBE18"/>
</g>
<g clip-path="url(#clip15_2699_1026)">
<path d="M46.4062 2.53125C46.4062 3.3075 45 5.625 45 5.625C45 5.625 43.5938 3.3075 43.5938 2.53125C43.5938 1.755 44.2237 1.125 45 1.125C45.7762 1.125 46.4062 1.755 46.4062 2.53125Z" fill="#F68820"/>
</g>
<g clip-path="url(#clip16_2699_1026)">
<path d="M41.0747 3.98532C41.7474 4.37457 43.0513 6.75057 43.0513 6.75057C43.0513 6.75057 40.3412 6.8102 39.6684 6.42207C38.9968 6.03282 38.7662 5.17332 39.1543 4.50057C39.5424 3.82782 40.4031 3.5972 41.0747 3.98532Z" fill="#F68820"/>
</g>
<g clip-path="url(#clip17_2699_1026)">
<path d="M39.6688 9.32789C40.3415 8.93976 43.0516 8.99939 43.0516 8.99939C43.0516 8.99939 41.7478 11.3754 41.075 11.7646C40.4023 12.1528 39.5428 11.9221 39.1535 11.2494C38.7665 10.5766 38.9971 9.71714 39.6688 9.32789Z" fill="#F68820"/>
</g>
<g clip-path="url(#clip18_2699_1026)">
<path d="M43.5938 13.2188C43.5938 12.4425 45 10.125 45 10.125C45 10.125 46.4062 12.4425 46.4062 13.2188C46.4062 13.995 45.7762 14.625 45 14.625C44.2237 14.625 43.5938 13.995 43.5938 13.2188Z" fill="#F68820"/>
</g>
<g clip-path="url(#clip19_2699_1026)">
<path d="M48.9249 11.7646C48.2521 11.3754 46.9482 8.99939 46.9482 8.99939C46.9482 8.99939 49.6584 8.93976 50.3311 9.32789C51.0039 9.71601 51.2345 10.5766 50.8464 11.2494C50.4571 11.9221 49.5965 12.1528 48.9249 11.7646Z" fill="#F68820"/>
</g>
<g clip-path="url(#clip20_2699_1026)">
<path d="M50.3311 6.42062C49.6584 6.80874 46.9482 6.74912 46.9482 6.74912C46.9482 6.74912 48.2521 4.37312 48.9249 3.98387C49.5976 3.59462 50.4571 3.82637 50.8452 4.49912C51.2334 5.17187 51.0027 6.03137 50.3311 6.42062Z" fill="#F68820"/>
</g>
</g>
</g>
<defs>
<clipPath id="clip0_2699_1026">
<rect width="72" height="72" fill="white"/>
</clipPath>
<clipPath id="clip1_2699_1026">
<rect width="47.2619" height="69.75" fill="white" transform="translate(12.3691 1.125)"/>
</clipPath>
<clipPath id="clip2_2699_1026">
<rect width="47.2619" height="38.25" fill="white" transform="translate(12.3691 32.625)"/>
</clipPath>
<clipPath id="clip3_2699_1026">
<rect width="30.381" height="38.25" fill="white" transform="translate(29.25 32.625)"/>
</clipPath>
<clipPath id="clip4_2699_1026">
<rect width="18" height="4.5" fill="white" transform="translate(27 28.125)"/>
</clipPath>
<clipPath id="clip5_2699_1026">
<rect width="9" height="4.5" fill="white" transform="translate(36 28.125)"/>
</clipPath>
<clipPath id="clip6_2699_1026">
<rect width="36" height="13.643" fill="white" transform="translate(18 52.7324)"/>
</clipPath>
<clipPath id="clip7_2699_1026">
<rect width="36" height="13.643" fill="white" transform="translate(18 52.7324)"/>
</clipPath>
<clipPath id="clip8_2699_1026">
<rect width="14.9591" height="13.6357" fill="white" transform="translate(39.041 52.7402)"/>
</clipPath>
<clipPath id="clip9_2699_1026">
<rect width="3.375" height="3.375" fill="white" transform="translate(30.375 59.0625)"/>
</clipPath>
<clipPath id="clip10_2699_1026">
<rect width="2.25" height="2.25" fill="white" transform="translate(27 62.4375)"/>
</clipPath>
<clipPath id="clip11_2699_1026">
<rect width="11.25" height="11.25" fill="white" transform="translate(24.75 10.125)"/>
</clipPath>
<clipPath id="clip12_2699_1026">
<rect width="3.375" height="3.375" fill="white" transform="translate(27 12.375)"/>
</clipPath>
<clipPath id="clip13_2699_1026">
<rect width="6.75" height="6.75" fill="white" transform="translate(38.25 19.125)"/>
</clipPath>
<clipPath id="clip14_2699_1026">
<rect width="2.25" height="2.25" fill="white" transform="translate(39.375 20.25)"/>
</clipPath>
<clipPath id="clip15_2699_1026">
<rect width="2.8125" height="4.5" fill="white" transform="translate(43.5938 1.125)"/>
</clipPath>
<clipPath id="clip16_2699_1026">
<rect width="4.08548" height="2.95699" fill="white" transform="translate(38.9658 3.79688)"/>
</clipPath>
<clipPath id="clip17_2699_1026">
<rect width="4.08582" height="2.95699" fill="white" transform="translate(38.9658 8.99609)"/>
</clipPath>
<clipPath id="clip18_2699_1026">
<rect width="2.8125" height="4.5" fill="white" transform="translate(43.5938 10.125)"/>
</clipPath>
<clipPath id="clip19_2699_1026">
<rect width="4.08658" height="2.95699" fill="white" transform="translate(46.9482 8.99609)"/>
</clipPath>
<clipPath id="clip20_2699_1026">
<rect width="4.08548" height="2.95749" fill="white" transform="translate(46.9482 3.79492)"/>
</clipPath>
</defs>
</svg>
